<svg xmlns="http://www.w3.org/2000/svg" width="248" height="80" xml:space="preserve"><g fill="#0054CA"><path d="M118.622 34.714v-20.16h7.328c4.305 0 8.228 1.144 8.228 6.457 0 5.421-4.25 6.538-8.281 6.538h-2.86v7.165h-4.415zm4.414-10.597h3.023c2.751 0 3.787-1.063 3.787-2.997 0-1.88-1.008-2.942-3.787-2.942h-3.023v5.939zM135.952 24.634c0-7.083 4.631-10.461 9.507-10.461 4.85 0 9.48 3.378 9.48 10.461s-4.631 10.461-9.48 10.461c-4.876 0-9.507-3.378-9.507-10.461zm14.574 0c0-4.223-1.961-6.783-5.067-6.783-3.132 0-5.066 2.561-5.066 6.783s1.935 6.893 5.066 6.893c3.106 0 5.067-2.67 5.067-6.893zM158.295 34.714v-20.16h4.439v16.564h8.882v3.596h-13.321zM174.07 34.714v-20.16h4.413v20.16h-4.413zM182.272 34.714v-3.052l10.517-13.431h-9.835v-3.677h15.419v3.16l-10.297 13.404h10.297v3.596h-16.101zM202.19 34.714v-20.16h13.73v3.705h-9.29v4.332h6.729v3.514h-6.729v5.014h9.78v3.596h-14.22zM220.883 34.714v-20.16h4.413v20.16h-4.413z"/></g><g fill="#1D1D1B"><path d="M118.604 50.158v-9.472h2.087l3.969 6.042h.026v-6.042h1.92v9.472h-1.92l-4.136-6.092h-.025v6.092h-1.921zM128.12 46.754c0-2.676 1.831-3.559 3.495-3.559 1.651 0 3.482.883 3.482 3.559 0 2.65-1.831 3.547-3.482 3.547-1.652 0-3.495-.897-3.495-3.547zm4.916.012c0-1.139-.396-2.061-1.421-2.061-.986 0-1.434.832-1.434 2.061 0 1.141.384 2.088 1.434 2.088.973 0 1.421-.846 1.421-2.088zM136.419 50.158v-6.822h2.062v1.139h.013c.371-.576 1.024-1.279 2.305-1.279h.063l-.025 1.83c-.077-.012-.409-.039-.538-.039-.819 0-1.434.436-1.817.936v4.236h-2.063zM141.299 46.805c0-2.355 1.088-3.609 2.649-3.609.922 0 1.588.332 2.074.998v-3.507h2.062v7.81c0 .818.051 1.316.204 1.662h-2.112c-.089-.166-.153-.678-.153-1.023-.448.615-1.088 1.127-2.1 1.127-1.549-.001-2.624-1.103-2.624-3.458zm4.723 1.242v-2.521c-.448-.422-.819-.629-1.357-.629-.857 0-1.306.654-1.306 1.896 0 1.139.41 1.92 1.332 1.92.525 0 .998-.32 1.331-.666zM149.789 50.158v-6.822h2.062v1.139h.013c.371-.576 1.024-1.279 2.305-1.279h.064l-.026 1.83c-.077-.012-.409-.039-.538-.039-.819 0-1.434.436-1.817.936v4.236h-2.063zM155.334 50.158v-9.472h2.062v3.724c.409-.537 1.165-1.215 2.355-1.215 1.165 0 1.997.576 1.997 1.984v4.979h-2.062v-4.326c0-.613-.23-.936-.794-.936-.563 0-1.036.283-1.497.68v4.582h-2.061zM163.006 46.754c0-2.65 2.022-3.559 3.431-3.559s3.137.703 3.137 3.801v.309h-4.52c.103 1.127.729 1.563 1.588 1.563.806 0 1.562-.398 2.022-.82l.794 1.229c-.794.68-1.779 1.025-2.971 1.025-1.779-.001-3.481-.911-3.481-3.548zm4.723-.666c-.103-.961-.537-1.42-1.306-1.42-.641 0-1.191.422-1.345 1.42h2.651zM170.958 42.4v-1.65h2.074v1.65h-2.074zm.014 7.758v-6.822h2.048v6.822h-2.048zM174.8 50.158v-6.822h2.061v1.074c.41-.537 1.166-1.215 2.356-1.215 1.152 0 1.984.576 1.984 1.984v4.979h-2.048v-4.326c0-.613-.231-.936-.808-.936-.551 0-1.023.283-1.485.68v4.582h-2.06zM182.203 46.83v-1.383h3.367v1.383h-3.367zM187.811 50.158l-2.521-9.472h2.099l.998 4.314c.18.691.333 1.268.461 2.074h.025c.116-.781.27-1.383.436-2.061l.96-4.328h1.921l1.023 4.353c.18.754.32 1.189.449 2.035h.025c.128-.857.243-1.242.422-2.01l.96-4.378h1.921l-2.472 9.472h-1.779l-1.498-6.592h-.025l-1.6 6.592h-1.805zM196.904 46.754c0-2.65 2.022-3.559 3.431-3.559s3.137.703 3.137 3.801v.309h-4.52c.103 1.127.729 1.563 1.588 1.563.807 0 1.563-.398 2.022-.82l.794 1.229c-.794.68-1.779 1.025-2.97 1.025-1.779-.001-3.482-.911-3.482-3.548zm4.724-.666c-.102-.961-.537-1.42-1.306-1.42-.641 0-1.19.422-1.344 1.42h2.65zM204.165 49.25l.819-1.152c.614.537 1.536.885 2.369.885.64 0 1.088-.219 1.088-.666 0-.475-.358-.654-1.294-.82-1.292-.23-2.675-.537-2.675-2.139 0-1.369 1.126-2.162 2.649-2.162 1.396 0 2.24.357 2.996.959l-.807 1.166c-.69-.475-1.37-.742-2.01-.742-.589 0-.922.229-.922.602 0 .41.371.576 1.217.729 1.344.23 2.765.537 2.765 2.088 0 1.65-1.434 2.305-3.008 2.305-1.497-.002-2.496-.463-3.187-1.053zM212.054 48.238v-3.404h-1.14v-1.498h1.14v-2.343h2.048v2.343h1.754v1.498h-1.754v2.957c0 .729.205.959.948.959.229 0 .537-.025.678-.076v1.473c-.153.039-.909.102-1.357.102-2.023-.001-2.317-.729-2.317-2.011zM217.715 50.158v-5.324h-1.14v-1.498h1.14v-.475c0-1.139.346-2.227 2.368-2.227.397 0 1.127.064 1.242.09v1.434c-.104-.025-.397-.051-.602-.051-.5 0-.961.088-.961.818v.41h1.485v1.498h-1.485v5.324h-2.047zM221.71 48.418c0-1.574 1.332-2.445 4.327-2.689v-.166c0-.498-.256-.818-.922-.818-.87 0-1.613.359-2.24.846l-.87-1.18c.679-.613 1.703-1.215 3.405-1.215 1.869 0 2.638.922 2.638 2.676v2.625c0 .818.051 1.316.191 1.662h-2.048c-.09-.281-.154-.613-.154-.998-.627.705-1.369 1.102-2.381 1.102-1.05-.001-1.946-.679-1.946-1.845zm4.327-.295v-1.266c-1.626.166-2.317.574-2.317 1.203 0 .436.308.652.756.652.716.001 1.215-.243 1.561-.589zM229.752 50.158v-9.472h2.049v9.472h-2.049zM233.197 46.754c0-2.65 2.023-3.559 3.431-3.559 1.409 0 3.138.703 3.138 3.801v.309h-4.52c.102 1.127.729 1.563 1.587 1.563.807 0 1.563-.398 2.023-.82l.793 1.229c-.793.68-1.779 1.025-2.97 1.025-1.779-.001-3.482-.911-3.482-3.548zm4.725-.666c-.103-.961-.538-1.42-1.307-1.42-.64 0-1.19.422-1.344 1.42h2.651zM241.099 50.158v-6.822h2.061v1.074c.41-.537 1.165-1.215 2.355-1.215 1.152 0 1.985.576 1.985 1.984v4.979h-2.049v-4.326c0-.613-.23-.936-.807-.936-.551 0-1.023.283-1.485.68v4.582h-2.06z"/></g><g fill="#0054CA"><path d="M118.603 65.609v-9.473h3.559c2.33 0 3.726.832 3.726 2.932 0 1.498-.704 2.316-1.972 2.701l2.112 3.84h-2.202l-1.972-3.57h-1.203v3.57h-2.048zm2.047-5.185h1.421c1.204 0 1.78-.344 1.78-1.305 0-.936-.576-1.279-1.78-1.279h-1.421v2.584zM126.812 62.205c0-2.65 2.022-3.559 3.431-3.559s3.137.703 3.137 3.801v.309h-4.52c.103 1.125.729 1.561 1.588 1.561.806 0 1.562-.396 2.022-.818l.794 1.229c-.794.678-1.779 1.025-2.971 1.025-1.779-.001-3.481-.911-3.481-3.548zm4.723-.666c-.103-.961-.537-1.422-1.306-1.422-.641 0-1.191.424-1.345 1.422h2.651zM134.329 62.205c0-2.727 1.933-3.559 3.443-3.559 1.856 0 2.573.984 2.97 2.086l-1.729.576c-.269-.871-.665-1.152-1.267-1.152-.832 0-1.356.703-1.356 2.061 0 1.217.383 2.088 1.331 2.088.551 0 1.049-.295 1.344-1.217l1.702.59c-.435 1.061-1.279 2.074-3.085 2.074-1.599 0-3.353-.898-3.353-3.547zM141.935 65.609v-9.473h2.062v5.197l2.125-2.549h2.215l-2.228 2.549 2.355 4.275h-2.125l-1.511-2.777-.832.934v1.844h-2.061zM149.632 65.609v-9.473h2.049v9.473h-2.049zM153.512 57.852v-1.65h2.074v1.65h-2.074zm.012 7.757v-6.824h2.049v6.824h-2.049zM157.354 65.609v-6.824h2.061v1.076c.41-.537 1.165-1.215 2.355-1.215 1.152 0 1.985.574 1.985 1.984v4.979h-2.049v-4.326c0-.615-.23-.936-.807-.936-.551 0-1.023.283-1.485.68v4.582h-2.06zM164.538 66.635c0-.666.551-1.115 1.178-1.371-.294-.191-.461-.461-.461-.818 0-.564.448-1.051.986-1.396-.743-.436-1.127-1.139-1.127-1.959 0-1.369 1.101-2.443 3.072-2.443 1.012 0 1.78.281 2.292.742.461-.396 1.19-.666 1.754-.705v1.574c-.243 0-.666.027-1.152.154.077.18.128.41.128.678 0 1.385-1.063 2.434-3.021 2.434-.384 0-.742-.051-1.05-.115-.141.115-.229.217-.229.346 0 .256.269.307.768.332l1.024.064c2.342.09 3.29.652 3.29 1.934 0 1.408-1.651 2.086-3.918 2.086-2.664-.002-3.534-.578-3.534-1.537zm5.647-.205c0-.424-.206-.615-1.818-.691l-1.075-.051-.448-.039c-.257.166-.385.385-.385.613 0 .59.551.871 1.946.871 1.049 0 1.78-.256 1.78-.703zm-.808-5.262c0-.691-.396-1.217-1.164-1.217-.756 0-1.166.525-1.166 1.217s.423 1.215 1.166 1.215c.755 0 1.164-.524 1.164-1.215zM173.386 65.609v-9.473h2.062v3.725c.41-.537 1.165-1.215 2.356-1.215 1.164 0 1.997.574 1.997 1.984v4.979h-2.062v-4.326c0-.615-.23-.936-.794-.936s-1.037.283-1.498.68v4.582h-2.061zM180.98 63.869c0-1.574 1.331-2.445 4.326-2.689v-.166c0-.5-.255-.818-.921-.818-.871 0-1.613.357-2.24.844l-.871-1.178c.679-.613 1.703-1.215 3.405-1.215 1.869 0 2.638.922 2.638 2.676v2.623c0 .82.051 1.318.192 1.664h-2.049c-.09-.281-.154-.613-.154-.998-.627.705-1.369 1.102-2.38 1.102-1.05-.001-1.946-.681-1.946-1.845zm4.327-.295v-1.268c-1.625.168-2.316.576-2.316 1.203 0 .436.308.654.756.654.715.001 1.215-.243 1.56-.589zM188.882 63.766v-4.98h2.061v4.379c0 .615.231.949.808.949.55 0 1.023-.295 1.484-.693v-4.635h2.062v6.824h-2.062v-1.063c-.41.525-1.165 1.205-2.355 1.205-1.166 0-1.998-.578-1.998-1.986zM196.488 64.701l.819-1.152c.614.537 1.536.883 2.368.883.641 0 1.089-.217 1.089-.666 0-.473-.359-.652-1.294-.818-1.292-.23-2.675-.537-2.675-2.139 0-1.369 1.126-2.162 2.649-2.162 1.396 0 2.24.357 2.996.959l-.807 1.166c-.69-.475-1.37-.744-2.01-.744-.589 0-.922.23-.922.604 0 .408.371.576 1.216.729 1.345.23 2.766.537 2.766 2.088 0 1.65-1.434 2.305-3.009 2.305-1.495-.002-2.494-.465-3.186-1.053zM203.507 62.205c0-2.65 2.022-3.559 3.431-3.559s3.137.703 3.137 3.801v.309h-4.52c.103 1.125.729 1.561 1.588 1.561.807 0 1.563-.396 2.022-.818l.794 1.229c-.794.678-1.779 1.025-2.97 1.025-1.779-.001-3.482-.911-3.482-3.548zm4.723-.666c-.102-.961-.537-1.422-1.306-1.422-.641 0-1.19.424-1.344 1.422h2.65zM211.408 65.609v-6.824h2.061v1.076c.409-.537 1.165-1.215 2.355-1.215 1.152 0 1.984.574 1.984 1.984v4.979h-2.048v-4.326c0-.615-.23-.936-.807-.936-.551 0-1.024.283-1.485.68v4.582h-2.06z"/></g><circle fill="#0054CA" cx="76.304" cy="40.009" r="29.113"/><g fill="#FFF"><path d="M101.415 50.133h2.292c.529-1.426.949-2.904 1.25-4.426h-3.542v4.426zM101.415 42.25h4.012c.057-.74.095-1.485.095-2.241 0-.734-.037-1.461-.09-2.182h-4.017v4.423zM101.415 34.37h3.55c-.299-1.521-.712-3-1.237-4.426h-2.313v4.426zM93.674 45.707h4.424v4.426h-4.424zM93.674 37.828h4.424v4.422h-4.424zM93.674 29.944h4.424v4.426h-4.424z"/></g><path fill="#FFF" d="M85.93 37.828h4.424v4.422H85.93zM85.93 29.944h4.424v4.426H85.93zM78.187 45.707h4.425v4.426h-4.425zM78.187 37.828h4.425v4.422h-4.425zM78.187 29.944h4.425v4.426h-4.425zM74.155 39.685c-.25-.187-2.475-1.819-3.782-1.82l-8.794.332 3.376-.317c.889-.117 2.242-1.412 2.393-1.559l.311-.303-.378-.212c-.164-.091-1.631-.897-2.538-.897-.061 0-.121.004-.188.013l-7.957 1.352 3.935-.811c.867-.237 2.018-1.747 2.146-1.918l.245-.327-.377-.155c-.061-.025-1.474-.606-2.403-.606-.158 0-.299.018-.435.055l-4.62 1.523 8.415-3.118c.83-.343 1.801-1.942 1.909-2.123l.222-.373-.42-.106c-.046-.012-1.131-.285-2.016-.285-.351 0-.625.042-.846.134l-3.108 1.425 7.82-4.131c1.121-.648 2.232-3.175 2.354-3.461l.171-.397-.431-.051c-.034-.004-.844-.099-1.776-.099-1.121 0-1.927.138-2.407.414l-7.526 4.727 2.844-2.02c.713-.546 1.236-2.344 1.294-2.547l.117-.418-.435.004c-.211.003-2.082.045-2.804.598l-6.234 5.167 3.011-2.679c.632-.641.873-2.522.898-2.735l.049-.405-.406.054c-.211.027-2.089.292-2.732.942l-3.225 3.615 5.725-6.899c.548-.712.59-2.582.593-2.793l.007-.434-.417.117c-.203.057-2 .578-2.555 1.3l-2.03 2.855 4.745-7.548c.647-1.121.346-3.866.309-4.174l-.05-.431-.398.172c-.286.123-2.812 1.233-3.465 2.367l-4.157 7.861 1.467-3.194c.344-.828-.1-2.647-.152-2.852l-.106-.42-.373.221c-.181.108-1.782 1.079-2.13 1.918l-2.851 7.674 1.293-3.896c.227-.871-.504-2.621-.588-2.819l-.16-.375-.325.249c-.169.13-1.663 1.297-1.895 2.181l-.993 4.775 1.51-8.865c.117-.889-.782-2.529-.885-2.714l-.211-.378-.303.31c-.147.151-1.442 1.501-1.563 2.403l-.329 3.498.333-8.921c.001-1.294-1.63-3.521-1.816-3.77l-.259-.349-.26.349c-.186.249-1.82 2.475-1.821 3.781l.33 8.827-.321-3.434c-.118-.891-1.412-2.242-1.56-2.393l-.302-.311-.211.378c-.104.184-1.004 1.825-.885 2.726l1.477 8.708-.965-4.643c-.228-.869-1.721-2.036-1.892-2.167l-.324-.249-.16.376c-.084.197-.815 1.948-.583 2.838l1.317 3.969-2.879-7.769c-.344-.828-1.943-1.8-2.125-1.908l-.372-.221-.107.42c-.052.204-.498 2.022-.15 2.862l1.444 3.153-4.161-7.863c-.647-1.121-3.173-2.232-3.459-2.355l-.398-.172-.051.432c-.036.309-.337 3.053.316 4.184l4.798 7.629-2.088-2.943c-.546-.712-2.343-1.234-2.546-1.292l-.417-.117.006.434c.002.211.043 2.081.597 2.804l5.65 6.82-3.177-3.56c-.632-.638-2.51-.9-2.721-.929l-.406-.054.049.405c.025.214.267 2.096.915 2.748l3.141 2.792-6.402-5.302c-.711-.545-2.583-.587-2.794-.589l-.434-.007.118.418c.057.203.582 2.002 1.304 2.554l2.767 1.963-7.48-4.691c-.468-.271-1.272-.407-2.389-.407-.936 0-1.75.096-1.784.1l-.43.051.171.398c.123.286 1.235 2.812 2.367 3.464l7.984 4.212-3.288-1.507c-.211-.088-.484-.13-.837-.13-.884 0-1.968.273-2.014.285l-.42.106.222.372c.108.182 1.079 1.78 1.919 2.128L20.411 34l-4.569-1.505c-.122-.034-.258-.05-.417-.05-.93 0-2.344.582-2.404.606l-.377.156.245.327c.129.172 1.281 1.68 2.167 1.922l4.181.859-8.243-1.397c-.056-.007-.115-.012-.176-.012-.907 0-2.374.807-2.537.898l-.379.212.312.303c.151.146 1.503 1.441 2.405 1.56l3.386.316-8.818-.329c-1.295 0-3.52 1.634-3.77 1.82l-.348.26.348.259c.25.186 2.476 1.817 3.771 1.817H5.2l9.079-.34-3.656.342c-.89.117-2.243 1.412-2.394 1.561l-.311.301.378.213c.165.092 1.631.896 2.538.896.062 0 .121-.004.189-.014l7.942-1.348-3.913.807c-.868.238-2.019 1.748-2.147 1.918l-.245.328.378.156c.06.023 1.474.605 2.403.605.158 0 .298-.018.434-.055l4.61-1.521-8.402 3.117c-.83.342-1.801 1.941-1.909 2.123l-.222.371.42.107c.045.012 1.13.285 2.015.285.352 0 .625-.043.848-.135l3.133-1.436-7.848 4.148c-1.12.65-2.23 3.176-2.353 3.461l-.171.4.43.049c.034.004.841.098 1.771.098 1.124 0 1.932-.137 2.412-.414l7.499-4.713-2.807 1.994c-.712.545-1.235 2.344-1.293 2.547l-.117.416.433-.006c.211-.002 2.083-.043 2.803-.598l6.42-5.322-3.198 2.844c-.633.639-.875 2.521-.9 2.734l-.049.404.405-.053c.213-.027 2.089-.291 2.732-.941l3.189-3.572-5.67 6.842c-.547.713-.588 2.584-.591 2.795l-.005.434.417-.117c.203-.059 2-.58 2.553-1.303l1.928-2.717-4.669 7.426c-.646 1.121-.346 3.863-.309 4.174l.05.432.398-.172c.286-.123 2.813-1.234 3.466-2.365l4.163-7.869-1.453 3.17c-.344.828.102 2.648.154 2.854l.107.42.373-.223c.181-.107 1.781-1.08 2.128-1.92l2.916-7.871-1.363 4.117c-.228.871.504 2.621.589 2.818l.161.375.325-.248c.169-.131 1.663-1.299 1.894-2.184l.967-4.662-1.487 8.738c-.116.889.782 2.529.885 2.713l.211.379.303-.311c.147-.15 1.443-1.502 1.563-2.402l.314-3.338-.328 8.779c.001 1.293 1.634 3.52 1.821 3.768l.259.35.26-.35c.186-.248 1.815-2.475 1.815-3.781l-.335-8.969.333 3.541c.118.891 1.413 2.24 1.561 2.391l.302.311.211-.379c.103-.184 1.003-1.824.884-2.727l-1.459-8.566.94 4.521c.229.869 1.723 2.035 1.892 2.166l.325.25.161-.377c.084-.197.815-1.947.582-2.838l-1.352-4.074 2.912 7.861c.343.828 1.942 1.801 2.124 1.908l.373.223.107-.42c.051-.205.499-2.023.149-2.863l-1.419-3.098 4.134 7.818c.648 1.121 3.173 2.232 3.459 2.355l.398.172.051-.432c.036-.309.337-3.053-.315-4.186l-4.63-7.365 1.905 2.688c.548.711 2.344 1.234 2.547 1.291l.417.119-.005-.434c-.002-.213-.043-2.082-.597-2.805l-5.602-6.764 3.126 3.508c.631.637 2.508.902 2.72.932l.405.053-.049-.406c-.025-.213-.266-2.096-.913-2.748l-3.129-2.785 6.375 5.287c.712.547 2.583.588 2.795.592l.434.006-.118-.418c-.057-.203-.58-2-1.302-2.555l-2.839-2.016 7.548 4.742c.47.271 1.277.408 2.4.408.931 0 1.738-.094 1.772-.098l.431-.051-.171-.398c-.122-.285-1.232-2.811-2.364-3.467l-7.702-4.07 3.008 1.383c.212.088.487.131.841.131.883 0 1.964-.271 2.01-.283l.42-.107-.222-.371c-.108-.182-1.077-1.781-1.918-2.131l-8.311-3.088 4.534 1.496c.122.035.259.051.42.051.929 0 2.342-.58 2.401-.604l.378-.156-.245-.328c-.129-.172-1.279-1.682-2.166-1.924l-4.056-.838 8.13 1.387c.056.006.116.01.178.01.907 0 2.373-.803 2.537-.895l.379-.211-.311-.305c-.151-.146-1.503-1.441-2.404-1.561l-3.53-.334 8.956.334h.013c1.295 0 3.519-1.631 3.769-1.819l.348-.259-.347-.257z"/><path d="M74.32 39.476c-.421-.314-2.594-1.884-3.963-1.885h-.012l-.012.001-4.208.158c.661-.426 1.255-.988 1.419-1.147l.621-.604-.756-.424c-.281-.156-1.728-.938-2.696-.938-.076 0-.149.005-.218.014l-.012.001-.012.002-2.777.473c.581-.521 1.073-1.158 1.209-1.34l.49-.654-.756-.313c-.118-.049-.944-.384-1.762-.545l2.7-1 .011-.004.011-.004c.906-.375 1.878-1.946 2.063-2.257l.445-.744-.84-.215c-.043-.011-.955-.24-1.811-.287l3.721-1.966.011-.005.011-.007c1.185-.686 2.282-3.129 2.489-3.612l.343-.797-.861-.102c-.035-.004-.863-.101-1.814-.101-1.195 0-2.032.148-2.558.452l-.011.006-.01.006-3.57 2.241c.364-.703.602-1.497.664-1.719l.236-.835-.868.012c-.362.005-2.208.061-2.987.657l-.009.007-.01.008-2.181 1.808c.243-.741.351-1.541.378-1.768l.098-.812-.811.107c-.229.029-1.045.15-1.792.409l1.842-2.221.008-.009.007-.01c.598-.778.654-2.624.66-2.985l.012-.867-.834.234c-.221.063-1.019.299-1.724.663l2.24-3.563.006-.01.006-.011c.684-1.186.411-3.852.349-4.374l-.102-.862-.797.343c-.483.208-2.926 1.305-3.611 2.492l-.006.011-.006.01-1.958 3.705c-.037-.79-.228-1.595-.284-1.817l-.213-.841-.745.443c-.312.185-1.883 1.155-2.259 2.061l-.005.011-.004.011-.993 2.674c-.16-.766-.468-1.517-.557-1.727l-.321-.751-.649.498c-.184.141-.835.657-1.354 1.257l.485-2.848.002-.012.002-.012c.128-.973-.746-2.599-.923-2.915l-.423-.756-.605.62c-.161.165-.733.77-1.161 1.438l.157-4.209v-.02c0-1.37-1.566-3.542-1.88-3.963l-.519-.696-.517.695c-.315.421-1.884 2.594-1.885 3.963v.025l.156 4.19c-.427-.664-.993-1.263-1.152-1.427l-.605-.621-.423.757c-.177.316-1.053 1.941-.924 2.914l.001.012.002.011.482 2.845c-.518-.598-1.166-1.111-1.35-1.253l-.648-.497-.322.752c-.09.21-.397.96-.558 1.727l-.988-2.666-.004-.012-.005-.011c-.375-.906-1.946-1.877-2.257-2.063l-.745-.444-.213.84c-.057.224-.25 1.033-.286 1.825l-1.975-3.733-.006-.011-.006-.011c-.686-1.186-3.129-2.283-3.611-2.49l-.797-.343-.102.862c-.061.522-.333 3.188.351 4.374l.006.01.007.01 2.249 3.575c-.705-.365-1.501-.603-1.723-.665l-.834-.235.012.867c.005.362.059 2.208.657 2.987l.007.009.008.009 1.841 2.223c-.749-.26-1.569-.381-1.798-.41L19 21.227l.098.812c.027.228.136 1.034.382 1.778l-2.197-1.819-.009-.009-.01-.007c-.778-.597-2.625-.651-2.986-.656l-.867-.012.235.835c.063.221.298 1.01.66 1.711l-3.576-2.242-.01-.007-.01-.006c-.525-.303-1.359-.449-2.55-.449-.955 0-1.788.097-1.822.101l-.861.103.343.797c.208.482 1.305 2.926 2.491 3.61l.011.007.011.005 3.74 1.974c-.859.044-1.78.275-1.823.287l-.84.213.444.745c.186.311 1.156 1.883 2.063 2.257l.011.004.011.005 2.699 1.001c-.818.16-1.646.496-1.764.544l-.755.313.491.654c.138.184.636.828 1.222 1.351l-2.797-.475-.012-.002-.013-.002c-.069-.01-.142-.014-.218-.014-.968 0-2.416.782-2.696.939l-.757.424.622.604c.164.159.76.723 1.421 1.148l-4.198-.157h-.027c-1.37.001-3.541 1.57-3.962 1.885l-.695.519.695.519c.421.314 2.592 1.88 3.962 1.88h.025l4.239-.158c-.672.427-1.281 1.003-1.447 1.163l-.622.605.757.424c.28.156 1.728.939 2.695.939.076 0 .149-.006.219-.014l.013-.002.012-.002 2.784-.473c-.581.52-1.073 1.156-1.209 1.338l-.491.654.755.313c.118.049.947.385 1.765.545l-2.7 1.002-.011.004-.011.004c-.907.375-1.878 1.945-2.063 2.258l-.444.745.84.215c.043.01.958.24 1.814.285l-3.726 1.971-.011.006-.011.006c-1.185.686-2.28 3.131-2.488 3.613l-.343.797.862.102c.035.004.86.1 1.809.1 1.198 0 2.036-.148 2.563-.453l.01-.006.01-.006 3.577-2.248c-.362.703-.598 1.492-.661 1.715l-.235.834.867-.012c.362-.006 2.208-.061 2.986-.658l.01-.008.01-.008 2.181-1.807c-.246.744-.354 1.549-.381 1.775l-.098.813.811-.107c.229-.029 1.05-.15 1.798-.41l-1.83 2.209-.008.01-.007.01c-.598.777-.653 2.623-.658 2.986l-.012.865.834-.234c.219-.063 1-.295 1.699-.652l-2.242 3.566-.006.01-.006.01c-.684 1.186-.412 3.852-.35 4.373l.102.861.797-.342c.483-.209 2.926-1.305 3.612-2.49l.006-.01.006-.012 1.979-3.742c.037.793.229 1.602.286 1.824l.214.84.745-.443c.311-.186 1.882-1.156 2.257-2.063l.004-.012.004-.012.986-2.66c.16.77.47 1.525.561 1.738l.322.75.648-.498c.183-.139.828-.65 1.345-1.248l-.48 2.822-.002.012-.001.012c-.128.973.747 2.6.923 2.916l.423.756.605-.621c.16-.162.724-.758 1.15-1.42l-.157 4.213V72.599c.001 1.371 1.57 3.541 1.885 3.963l.519.695.519-.695c.314-.422 1.88-2.594 1.88-3.963V72.573l-.159-4.244c.428.67 1.001 1.275 1.162 1.441l.605.619.423-.756c.177-.316 1.051-1.941.923-2.916l-.002-.012-.002-.012-.479-2.814c.516.592 1.158 1.102 1.34 1.242l.649.498.321-.754c.09-.209.399-.963.559-1.73l.984 2.656.004.012.004.012c.375.908 1.946 1.879 2.257 2.064l.745.443.213-.84c.057-.225.248-1.027.285-1.816l1.975 3.732.006.012.006.01c.685 1.188 3.128 2.283 3.611 2.492l.797.342.102-.861c.062-.521.334-3.188-.349-4.373l-.006-.012-.006-.01-2.233-3.553c.697.355 1.475.588 1.693.65l.834.234-.012-.867c-.005-.361-.059-2.207-.657-2.986l-.007-.01-.008-.008-1.833-2.215c.746.258 1.56.379 1.788.408l.812.107-.098-.811c-.027-.229-.136-1.033-.381-1.779l2.182 1.811.009.008.009.008c.778.598 2.625.654 2.987.658l.868.012-.236-.834c-.063-.223-.3-1.018-.664-1.721l3.579 2.248.01.006.011.006c.526.305 1.364.453 2.561.453.95 0 1.776-.096 1.811-.102l.861-.1-.342-.799c-.208-.482-1.303-2.926-2.488-3.611l-.011-.006-.012-.006-3.704-1.957c.849-.049 1.748-.273 1.79-.285l.84-.213-.443-.744c-.185-.313-1.155-1.885-2.061-2.26l-.012-.004-.011-.004-2.707-1.008c.817-.16 1.642-.494 1.759-.543l.756-.311-.49-.654c-.137-.184-.633-.826-1.217-1.348l2.805.479.012.002.012.002c.07.008.144.014.22.014.989 0 2.523-.842 2.695-.938l.757-.424-.621-.604c-.166-.162-.773-.736-1.444-1.164l4.229.156h.024c1.37 0 3.541-1.567 3.962-1.881l.695-.519-.696-.515zm-9.741-4.184c.042-.007.087-.009.134-.009.849 0 2.38.857 2.38.857s-1.401 1.363-2.209 1.469l-3.355.315-8.93.336v-.934l11.98-2.034zm-2.183-1.887s-1.188 1.587-1.977 1.802l-3.716.767-4.104.697v-1.329l2.737-1.014 4.443-1.466c.098-.026.211-.038.335-.038.878 0 2.282.581 2.282.581zm2.71-4.727s-1.001 1.678-1.755 1.989l-10.752 3.984v-1.154l6.763-3.571 3.096-1.42c.184-.075.437-.104.712-.104.854 0 1.936.276 1.936.276zm.013-6.492c.5-.288 1.411-.364 2.235-.364.924 0 1.738.097 1.738.097s-1.16 2.694-2.219 3.308l-14.274 7.54v-2.719l12.52-7.862zm-6.475.322c.648-.496 2.602-.523 2.602-.523s-.531 1.882-1.178 2.377l-2.83 2.009-4.639 2.913v-1.766l6.045-5.01zm-2.846-.534s-.235 1.968-.81 2.549l-2.389 2.126v-.026h-2.715l.279-.336 3.099-3.474c.573-.579 2.536-.839 2.536-.839zm-3.844 21.592c.002 3.332-1.58 6.793-4.154 9.41-2.574 2.619-6.125 4.389-10.042 4.387-3.891.002-7.439-1.771-10.016-4.393-2.577-2.621-4.169-6.086-4.167-9.416l-.006-.715V27.27h28.382v15.572l.003.724zm3.839-27.046s-.028 1.953-.526 2.601l-6.224 7.502H47.57l3.825-6.086 2.02-2.842c.497-.647 2.378-1.175 2.378-1.175zm-3.246-5.621c.613-1.062 3.307-2.221 3.307-2.221s.344 2.915-.267 3.975l-8.781 13.969h-2.572l8.313-15.723zm-5.434 3.497c.313-.754 1.992-1.753 1.992-1.753s.48 1.896.167 2.648l-1.457 3.173-4.314 8.158h-.93l4.542-12.226zm-2.74.972s.779 1.822.572 2.612l-1.228 3.699-1.836 4.943h-1.038l.795-4.667.956-4.594c.207-.787 1.779-1.993 1.779-1.993zm-4.211-2.51c.107-.81 1.472-2.208 1.472-2.208s.953 1.706.846 2.514l-2.292 13.458h-.739l.384-10.271.329-3.493zm-2.395-9.031s1.752 2.352 1.752 3.577L38.8 26.623h-2.072l-.718-19.22c.002-1.224 1.757-3.576 1.757-3.576zm-3.862 6.815s1.363 1.399 1.47 2.208l.32 3.421.387 10.352h-.74l-2.285-13.467c-.107-.81.848-2.514.848-2.514zm-2.739 4.717s1.571 1.206 1.778 1.995l.921 4.436.82 4.833H33.65l-1.801-4.86-1.257-3.79c-.206-.792.574-2.614.574-2.614zm-4.727-2.718s1.678 1 1.991 1.755l4.531 12.227h-.917l-4.331-8.186-1.442-3.147c-.313-.753.168-2.649.168-2.649zm-6.498-.01c-.612-1.06-.269-3.975-.269-3.975s2.694 1.159 3.307 2.22l8.332 15.747H28.74l-8.799-13.992zm.325 6.478c-.497-.646-.523-2.601-.523-2.601s1.881.53 2.377 1.178l2.074 2.924 3.782 6.013h-1.487l-6.223-7.514zm1.999 3.692 3.039 3.405.345.416h-2.726v.009l-2.385-2.119c-.574-.581-.811-2.549-.811-2.549s1.964.259 2.538.838zm-7.997-.828s1.954.026 2.602.522l6.053 5.014v1.755L18.195 26.3l-2.748-1.95c-.648-.495-1.179-2.377-1.179-2.377zm-5.635 3.233c-1.06-.613-2.221-3.306-2.221-3.306s.819-.098 1.746-.098c.822 0 1.729.076 2.227.363l12.538 7.862v2.717l-14.29-7.538zm3.529 5.449c-.754-.312-1.754-1.99-1.754-1.99s1.081-.274 1.935-.274c.276 0 .528.029.713.104l3.257 1.494 6.61 3.487v1.171l-10.761-3.992zm.953 2.739s1.405-.582 2.281-.582c.124 0 .237.012.335.038l4.365 1.438 2.827 1.048v1.332l-3.85-.654-3.981-.818c-.787-.216-1.977-1.802-1.977-1.802zM8.41 36.137s1.531-.856 2.379-.856c.047 0 .092.002.134.008l11.999 2.035v.932l-8.933-.333-3.37-.315c-.807-.107-2.209-1.471-2.209-1.471zm-3.252 5.611c-1.226 0-3.576-1.752-3.576-1.752s2.352-1.756 3.576-1.757l17.765.664v2.181l-17.765.664zm5.781 2.965c-.042.006-.087.008-.135.008-.848 0-2.379-.855-2.379-.855s1.401-1.363 2.21-1.471l3.628-.34 8.66-.322v.945l-11.984 2.035zm2.19 1.885s1.189-1.586 1.977-1.803l3.696-.762 4.124-.699.001.223c0 .186.007.371.018.557.009.174.023.348.04.521v.004l-2.798 1.037-4.441 1.465c-.098.027-.211.039-.335.039-.877 0-2.282-.582-2.282-.582zm-2.707 4.728s1-1.678 1.755-1.99l10.889-4.037c.025.162.052.322.083.482.005.031.012.061.018.092.03.15.061.303.097.453l-7.078 3.742-3.117 1.43c-.184.076-.437.104-.713.104-.853 0-1.934-.276-1.934-.276zm-.013 6.494c-.501.289-1.415.365-2.24.365-.922 0-1.733-.094-1.733-.094s1.159-2.695 2.218-3.309l14.78-7.814c.212.73.489 1.451.822 2.152l-13.847 8.7zm6.485-.334c-.647.498-2.602.525-2.602.525s.531-1.883 1.178-2.379l2.789-1.98 6.289-3.951c0 .002.001.002.001.002.084.158.17.316.259.471.026.047.055.092.082.139.072.121.143.244.218.363l-8.214 6.81zm2.842.543s.236-1.969.811-2.549l3.022-2.688 1.895-1.57h.001c.292.428.609.842.944 1.24l-1.083 1.309-3.052 3.42c-.574.579-2.538.838-2.538.838zm.025 5.442s.027-1.953.524-2.602l6.554-7.91.006.006c.264.291.54.57.826.842.004.006.009.01.014.014l-3.626 5.768-1.919 2.705c-.498.647-2.379 1.177-2.379 1.177zm3.22 5.634c-.613 1.061-3.307 2.219-3.307 2.219s-.344-2.914.268-3.973l8.229-13.088c.133.117.269.23.406.342.033.027.066.055.1.082.118.096.237.189.358.281.075.057.151.111.228.168.09.066.179.133.271.197.177.123.357.246.541.363l-7.094 13.409zm5.455-3.529c-.312.754-1.99 1.756-1.99 1.756s-.482-1.896-.169-2.648l1.443-3.15 2.909-5.5.001.002c.169.098.341.191.513.283.016.008.032.018.048.025.185.098.372.189.562.281l-3.317 8.951zm2.736-.947s-.78-1.822-.574-2.613l1.294-3.908.452-1.219c.256.109.515.211.777.303.019.008.037.016.056.021.269.094.541.184.816.262l-.115.68-.929 4.479c-.206.788-1.777 1.995-1.777 1.995zm4.521-.842-.314 3.334c-.106.809-1.471 2.207-1.471 2.207s-.953-1.705-.846-2.514l1.561-9.176c.207.047.415.09.624.131.008 0 .015.002.023.004.213.039.428.074.644.104l-.221 5.91zm2.074 12.387s-1.755-2.354-1.756-3.576l.547-14.646c.191.018.382.031.574.041.207.012.416.018.625.02.212-.002.423-.008.633-.02.195-.01.389-.025.582-.043l.547 14.648c.001 1.222-1.752 3.576-1.752 3.576zm3.866-6.858s-1.364-1.398-1.472-2.207l-.331-3.512-.213-5.721c.217-.031.434-.064.648-.105.009 0 .017-.002.025-.004.21-.041.419-.084.626-.131l.001-.002 1.562 9.168c.107.809-.846 2.514-.846 2.514zm2.732-4.699s-1.571-1.207-1.778-1.994l-.901-4.34-.138-.811h.001c.276-.078.548-.166.817-.262.015-.006.031-.012.046-.016.265-.096.525-.197.783-.305l.452 1.221 1.291 3.893c.206.792-.573 2.614-.573 2.614zm4.723 2.705s-1.679-1-1.991-1.754l-3.312-8.941c.002-.002.004-.002.006-.004.188-.09.374-.18.556-.277.013-.006.025-.014.037-.02.176-.094.35-.188.521-.287h.002l2.938 5.555 1.411 3.08c.314.754-.168 2.648-.168 2.648zm6.498.02c.611 1.061.267 3.975.267 3.975s-2.694-1.16-3.307-2.221l-7.083-13.393c.001-.002.001-.002.002-.002.006-.004.013-.008.019-.014.176-.111.35-.229.52-.348.094-.066.185-.133.276-.199.075-.057.15-.111.224-.168.12-.09.237-.182.354-.277.036-.027.073-.059.108-.088.135-.109.267-.221.397-.334.001 0 .002-.002.003-.004l8.22 13.073zm-.339-6.471c.497.648.523 2.602.523 2.602s-1.88-.531-2.377-1.178l-1.893-2.67-3.645-5.797c.284-.27.558-.549.82-.836.008-.008.017-.018.025-.027l6.547 7.906zm-2-3.687-2.99-3.354-1.126-1.359c.335-.398.651-.813.943-1.24l1.908 1.582 2.992 2.662c.574.58.81 2.551.81 2.551s-1.964-.262-2.537-.842zm7.983.824s-1.955-.027-2.602-.525l-8.197-6.799.002-.004c.074-.119.144-.238.215-.359.027-.047.056-.092.082-.139.091-.156.177-.316.262-.477l6.232 3.916 2.829 2.008c.646.496 1.177 2.379 1.177 2.379zm5.636-3.235c1.059.613 2.217 3.307 2.217 3.307s-.812.096-1.735.096c-.825 0-1.737-.076-2.237-.365l-13.83-8.688v-.002c.332-.701.608-1.42.819-2.152l14.766 7.804zm-3.524-5.433c.754.313 1.753 1.992 1.753 1.992s-1.078.273-1.932.273c-.277 0-.531-.029-.716-.105l-2.979-1.369-7.199-3.805c0-.002.001-.002.001-.004.035-.146.064-.295.094-.443.006-.033.013-.064.019-.096.031-.162.058-.324.082-.486l10.877 4.043zm-.964-2.742s-1.403.582-2.281.582c-.125 0-.238-.012-.336-.039l-4.326-1.43-2.891-1.074c0-.004.001-.008.001-.012.016-.168.03-.336.038-.506.011-.184.017-.555.017-.555l-.001-.24 3.936.672 3.866.799c.788.217 1.977 1.803 1.977 1.803zm4.72-2.733s-1.53.855-2.379.855c-.047 0-.092-.004-.135-.01l-11.985-2.043v-.932l8.768.326 3.523.332c.807.107 2.208 1.472 2.208 1.472zm3.26-2.117-17.76-.66v-2.18l17.759-.669c1.224.001 3.576 1.756 3.576 1.756s-2.35 1.753-3.575 1.753z"/><g fill-rule="evenodd" clip-rule="evenodd"><path fill="#009540" d="M37.395 33.447v9.575c0 4.832-2.566 8.871-6.406 11.186-1.739-1.156-3.5-2.725-4.627-4.598.691-.727 1.305-1.533 1.838-2.395 1.082-1.754 1.243-3.975 2.526-5.611 1.184-1.516 3.28-1.931 4.395-3.42 1.067-1.42 1.39-3.221 2.274-4.737m-12.81-5.144h10.896c-.406.444-.799.894-1.166 1.38-1.367 1.83-1.235 4.39-2.62 6.184-1.213 1.565-3.27 1.976-4.404 3.429-1.285 1.641-1.368 3.894-2.579 5.576-.083-.605-.128-1.223-.128-1.85V28.303zm13.168 25.72c-.486 0-.887-.4-.887-.891 0-.488.401-.893.887-.893.493 0 .893.404.893.893.004.491-.403.891-.893.891zm2.848-.535c.174.189.297.428.352.682-.192.174-.429.295-.683.344.04-.211.011-.416-.108-.6.202-.084.341-.236.439-.426zm-1.624-2.955c.235-.104.495-.15.753-.119.105.236.147.494.119.754-.188-.098-.395-.137-.607-.082-.015-.219-.118-.398-.265-.553zm-3.312.637c-.032-.258.007-.52.117-.756.258-.031.516.016.752.119-.151.15-.255.334-.268.553-.206-.051-.413-.012-.601.084zm-.421 3.344c-.254-.049-.492-.17-.684-.344.053-.254.174-.488.347-.678.098.189.237.34.439.424-.116.184-.139.387-.102.598zm3.052 1.431c-.13.229-.314.416-.54.545-.225-.123-.413-.316-.541-.541.211-.029.402-.117.542-.289.145.164.328.256.539.285z"/><path fill="#E20613" d="M39.15 53.133c0 .77-.627 1.391-1.394 1.391-.764 0-1.394-.621-1.394-1.391s.629-1.393 1.394-1.393c.767 0 1.394.623 1.394 1.393m-2.983 2.187c-.587-.422-.806-1.158-.244-1.441.038-.1 0-.219-.086-.271-.625.1-.879-.627-.657-1.313.228-.686.855-1.121 1.3-.676.108.006.206-.066.232-.17-.286-.557.321-1.025 1.044-1.025.721 0 1.333.469 1.043 1.025.03.104.126.176.235.17.443-.445 1.074-.01 1.296.676.226.686-.027 1.412-.655 1.313-.085.053-.126.172-.085.271.558.283.339 1.02-.243 1.441-.585.428-1.352.408-1.446-.213-.083-.068-.205-.068-.29 0-.093.622-.864.641-1.444.213zm5.598-9.502h2.501c0-1.033-.768-1.713-.768-2.916 0-.787.311-1.281 1.135-1.52.205.191.388.428.542.75.008 1.055.182 1.777.435 2.301 0 0-.568.434-.568 2.025 0 0-2.256-.104-2.53.191h-.354v.512c-.554.182-1.073.189-1.445.018.001-.453.491-.865.491-.865.049 0 .089.006.134.006.236 0 .434-.191.434-.428-.001-.029-.004-.052-.007-.074zm-2.768-8.106c-.272-.266-.272-.836-.272-.937.039-.024.076-.05.107-.08.167-.171.167-.444 0-.609-.026-.026-.053-.049-.084-.066.246-.718.722-1.093.91-2.106h.742l1.766 1.383c-.312.354-.577.772-.695 1.301l-.944-1.753c-.603 0-.969.498-.658 1.242l-.226.229.351.369c-.266.523-.614.88-.997 1.027zm7.257 12.44c0-.445.431-.83.479-.863.022.002.044.002.064.002.24 0 .434-.193.434-.434 0-.063-.013-.125-.039-.182 1.184-2.111.868-2.418-.962-3.918-.5-.408-.66-1.609-.66-2.711-.73-1.703-2.702-1.507-3.444-3.182l.864.05c.44.021.752-.242.896-.464.138-.207.004-.486-.219-.409-.099.275-.366.494-.668.48l-2.139-.118c-.428.425-.338 1.038.413 1.358v.319h.506c.182.575.19 1.094.021 1.444-.411 0-.871-.486-.871-.486.005-.053.012-.097.012-.138 0-.235-.196-.43-.433-.43-.034 0-.066.003-.1.008-.239-.383-.202-1.209-.831-2.124l.479-.576 1.736-.586c.051-2.039 2.394-2.509 2.749-3.997.506 0 .817-.151 1.061-.624.063-.126.033-.417-.283-.352-.17.493-.406.582-.729.582-.843 0-1.526-.144-1.64.23-.189.636-1.068.238-1.068.238l.214-.157c.02.003.039.003.056.003.162 0 .295-.087.295-.188 0-.107-.133-.191-.295-.191-.164 0-.295.084-.295.191v.017l-.199.148c-.259 0-.306-.205-.312-.302.1 0 .175-.084.175-.191 0-.104-.076-.194-.167-.194.004-.075.047-.233.23-.381l1.503-1.193c.218-.173.651-.405.842-.505-.024-.326.101-.758.101-1.062 0 0 .443.191.621.622.136.315.052.511-.008.666.079.127.42.13.462-.196.015-.133.015-.287-.035-.46.58.063 1.402.265 2.668.134-.256.3-.586.515-.932.667.633.148 1.405.461 1.792 1.105-.306.157-.636.258-.963.316.602.528.838 1.316 1.356 1.634-.667.19-1.224.137-1.658-.011.21.427.536.931.979 1.156-.606.273-1.195.431-1.654.523.146.236.352.533.611.724-.472.017-.854.148-1.072.252-.038.55-.191 1.696 1.21 3.175 1.861 1.406 2.328 2.475.859 4.37 0 .961.16 1.348.659 2.326-.044.096-.247.561-.452 1.119-.222.621-.393 1.301-.393 1.9 0 0-.316-.006-.316.332v.512c-.578.183-1.164.188-1.51.022zm-3.188-18.703c.203.335.719 0 .719 0s-.626-.592-.719 0zm7.333 5.354c0 .861-.78 1.234-.78 1.873 0 .759.752 1.126.752 1.856 0 .758-.596.889-.98.758 0 0 .242-.057.242-.355 0-.896-1.922-.849-1.922-2.26 0-.734.522-1.324.522-1.757.001-.224-.168-.529-.451-.632.396-.279 1.059-.107 1.229.32.133-.356.258-.884.097-1.396.909.347 1.291.934 1.292 1.59v.003zm-12.282-8.5h12.809v14.718c0 4.832-2.568 8.871-6.408 11.186-3.835-2.314-6.401-6.354-6.401-11.186V28.303z"/></g></svg>