<?xml version="1.0" encoding="utf-8"?>
<!-- Generator: $$$/GeneralStr/196=Adobe Illustrator 27.6.0, SVG Export Plug-In . SVG Version: 6.00 Build 0)  -->
<svg version="1.1" id="Ebene_1" xmlns="http://www.w3.org/2000/svg" xmlns:xlink="http://www.w3.org/1999/xlink" x="0px" y="0px"
	 viewBox="0 0 226.77 122.48" style="enable-background:new 0 0 226.77 122.48;" xml:space="preserve">
<style type="text/css">
	.st0{fill:#FFFFFF;}
	.st1{fill:#ECECEC;}
	.st2{fill:#9BB600;}
	.st3{fill:#748800;}
</style>
<g>
	<path class="st0" d="M84.31,19.71c1.23,0.38,2.38,1.14,3.42,2.2c1.02,1.04,1.93,2.36,2.68,3.88c0.75,1.5,1.34,3.2,1.75,5
		c0.41,1.8,0.63,3.71,0.63,5.66V80c0,1.95-0.23,3.84-0.63,5.58c-0.41,1.75-1.01,3.38-1.75,4.78c-0.75,1.42-1.66,2.64-2.68,3.55
		c-1.03,0.93-2.19,1.55-3.42,1.78l-6.59,1.21L59.4,122.48l4.79-23.1l-41.85,7.67c-2.46,0.45-4.85,0.29-7.07-0.4
		c-2.27-0.71-4.35-1.96-6.12-3.68c-1.81-1.75-3.29-3.96-4.32-6.52c-1.04-2.59-1.62-5.52-1.62-8.66V17.61c0-3.14,0.58-6,1.62-8.46
		c1.03-2.44,2.52-4.47,4.32-5.99c1.78-1.5,3.86-2.5,6.12-2.93c2.22-0.42,4.61-0.28,7.07,0.47L84.31,19.71z"/>
	<path class="st1" d="M92.8,56.26c-0.65,0.08-1.26,0.19-1.75,0.32v19.88c0.74,0.13,1.31,0.23,1.75,0.3V56.26z M81.03,75.12
		c2.22,0.39,4.57,0.18,6.13-0.42v-19.8c-3.29-0.58-3.33-0.59-3.33,0.12v16.88c-0.86,0.43-2.02,0.4-2.76,0.27
		c-2.22-0.39-2.76-1.45-2.76-4.16V53.33c-3.46-0.61-3.46-0.61-3.46,0.1v13.66C74.86,71.77,76.14,74.25,81.03,75.12 M67.48,55.77
		c0,2.63-2.1,3.93-4.94,4.6v-5.18c1.07-1.15,2.3-1.6,3.41-1.4C66.99,53.97,67.48,54.68,67.48,55.77 M67.77,61.12
		c1.03-0.65,3.42-2.41,3.42-5.87c0-1.92-0.78-3.73-3.5-4.21c-1.77-0.31-3.78,0.08-5.14,1.02V40.74c-2.76-0.49-3.37-0.59-3.37,0.95
		v29.16c3.41,0.6,3.37,0.6,3.37-0.07v-7.98c0,0,1.07-0.44,1.81-0.47c1.56-0.06,3.09,1.51,3.58,4.93c0.12,0.77,0.21,1.58,0.21,2.5
		c0,0.83-0.08,1.7-0.16,2.64c3.7,0.65,3.7,0.65,3.78,0c0.08-0.74,0.12-1.44,0.12-2.11c0-0.5,0-0.96-0.04-1.39
		C71.51,65,69.75,62.35,67.77,61.12 M64.46,79.59l1.27,0.22c1.65,0.29,2.37,1.65,2.37,4.51c0,4.59-1.18,5.03-2.41,4.81l-1.23-0.22
		V79.59z M64.33,79.09c-0.29-0.05-0.35,0.04-0.35,0.17v10.04l1.71,0.3c1.52,0.27,2.9-0.28,2.9-5.18c0-3.26-0.97-4.75-2.8-5.07
		L64.33,79.09z M49.78,76.67v9.44c-0.32,0.1-1.16,0.16-1.92,0.03c-1.95-0.34-2.15-1.79-2.15-3.33v-7c-0.48-0.08-0.48-0.08-0.48,0.08
		v6.84c0,1.81,0.23,3.46,2.63,3.88c1,0.18,2.02,0.11,2.41-0.06v-9.94C49.83,76.54,49.78,76.53,49.78,76.67 M48.87,74.55
		c0.28,0.05,0.46-0.12,0.46-0.42c0-0.26-0.17-0.51-0.46-0.57c-0.28-0.05-0.43,0.16-0.43,0.41C48.44,74.28,48.58,74.5,48.87,74.55
		 M46.85,74.19c0.27,0.05,0.48-0.12,0.48-0.42c0-0.26-0.19-0.52-0.48-0.57c-0.27-0.05-0.43,0.16-0.43,0.41
		C46.42,73.92,46.56,74.14,46.85,74.19 M47.1,57.48c0.25-5.6,1.73-6.8,3.41-6.5c1.77,0.31,2.3,1.53,2.35,4.55
		c0,0.79-0.04,1.75-0.21,2.47C51.22,58.16,48.67,57.8,47.1,57.48 M43.61,58.74c0,8.15,2.76,10.26,6.58,10.94
		c3.08,0.54,5.68,0,5.68-1.3c0-0.67-0.08-1.68-0.29-2.35c-1.4,0.55-3.04,0.76-4.69,0.47c-2.51-0.44-3.66-1.82-3.83-6.27
		c1.97,0.35,5.76,0.89,8.6,0.85c0.33-1.45,0.45-3.51,0.45-5.35c0-4.51-1.77-7.04-5.22-7.65C47.27,47.44,43.61,48.3,43.61,58.74
		 M34.09,46.79c-1.24-1.72-1.89-2.92-1.89-4.47c0-1.8,1.56-2.61,3.99-2.18c1.89,0.33,3.46,1.19,4.03,1.75
		c0.57-0.52,0.82-1.23,0.82-1.82c0-1.17-1.48-2.35-5.39-3.04c-4.61-0.81-7.08,1.26-7.08,4.77c0,1.96,0.7,3.8,2.55,6.47l4.16,5.62
		c1.81,2.45,2.39,3.93,2.39,5.85c0,2.55-1.11,4.07-4.03,3.55c-1.97-0.35-3.37-1.26-4.24-2.21c-0.58,0.65-0.86,1.6-0.86,2.27
		c0,1.17,1.65,2.8,5.39,3.46c5.6,0.99,7.36-2.34,7.36-6.56c0-2.59-0.62-4.58-2.76-7.55L34.09,46.79z M28.5,73.01v10.04l3.53,0.62
		c0.1,0.02,0.16,0.01,0.16-0.13v-0.29l-3.18-0.56v-9.82C28.5,72.78,28.5,72.78,28.5,73.01 M82,92.48c0.46,0.08,0.48,0.08,0.48-0.08
		V82.29C82.01,82.21,82,82.21,82,82.49V92.48z"/>
	<path class="st0" d="M152.34,75.7c0.33-1.27,0.65-2.5,0.69-2.86c0.04,0.36,0.36,1.6,0.71,2.86l0.88,3.18h-3.15L152.34,75.7z
		 M152.88,72.18l-2.85,10.13c0.13,0.01,0.25,0.01,0.29,0.01c0.16,0,0.22-0.01,0.26-0.11l0.78-2.89h3.38l0.84,2.99
		c0.1,0.01,0.23,0.01,0.3,0.01c0.16,0,0.2-0.04,0.17-0.17l-2.86-9.99c-0.03-0.03-0.12-0.04-0.19-0.04S152.88,72.15,152.88,72.18
		 M96.16,72.36v9.96c0.48,0,0.48,0,0.48-0.16V78.6c0-0.09-0.01-4.08-0.03-5.3c0.55,1.24,2.08,4.78,2.14,4.89l1.85,4.13h0.29
		c0.09,0,0.16-0.04,0.16-0.16V72.2c-0.48,0-0.48,0-0.48,0.16v8.83c-0.46-1.04-2.1-4.78-2.14-4.93L96.6,72.2h-0.29
		C96.2,72.2,96.16,72.24,96.16,72.36 M103.35,64.31V49.5c0-3.99-1.48-5.51-5.8-5.51c-1.51,0-3.27,0.34-4.75,0.78v20.19
		c1.51-0.03,1.58-0.14,1.58-0.65V47.65c0.91-0.49,2.18-0.74,3.04-0.74c2.06,0,2.47,0.99,2.47,3.58v14.48
		C103.26,64.97,103.35,64.97,103.35,64.31 M113.15,62.38c-1.93,0-3.09-1.15-3.09-7.32c0-6.75,1.81-8.15,3.62-8.15
		c0.86,0,1.36,0.12,1.89,0.54v14.32C114.92,62.21,114.06,62.38,113.15,62.38 M113.03,65.38c2.55,0,4.52-0.57,5.88-1.23V34.73
		c-2.72,0-3.33,0-3.33,1.52v8.56c-0.7-0.53-1.65-0.82-2.92-0.82c-3.54,0-6.34,3.29-6.34,11.44
		C106.32,64.35,109.45,65.38,113.03,65.38 M119.07,81.51v-4.8h-1.99c-0.1,0-0.16,0.04-0.16,0.16v0.29h1.69v4.13
		c-0.1,0.23-0.61,0.69-1.46,0.69c-1.2,0-2.23-0.48-2.23-4.65c0-3.95,1.07-4.81,2.57-4.81c0.62,0,1.03,0.19,1.34,0.43
		c0.06-0.1,0.09-0.2,0.09-0.3c0-0.3-0.66-0.59-1.5-0.59c-1.75,0-2.98,0.95-2.98,5.29c0,4.35,1.14,5.12,2.67,5.12
		C118.42,82.46,118.93,81.74,119.07,81.51 M130.65,55.26c0,2.22,0,5.27-0.12,6.62c-0.37,0.37-1.28,0.7-2.18,0.7
		c-1.6,0-2.67-0.53-2.67-3.54c0-3.58,1.4-4.15,3.04-4.15C129.3,54.89,130.12,55.02,130.65,55.26 M133.78,63.98
		c0.2-3.13,0.25-8.06,0.25-12.79v-2.18c0-3.7-1.56-5.02-5.1-5.02c-3.13,0-5.55,0.66-6.25,1.11c-0.33,0.25-0.45,0.7-0.45,1.15
		c0,0.49,0.08,1.23,0.45,1.89c1.19-0.49,3.37-0.9,5.43-0.9c1.65,0,2.55,0.49,2.55,2.43v3.25c-0.82-0.41-2.1-0.53-3-0.53
		c-2.76,0-5.47,1.03-5.47,6.75c0,5.64,2.88,6.3,5.88,6.25C130.74,65.38,132.67,64.64,133.78,63.98 M137.14,82.16V72.2
		c-0.48,0-0.48,0.01-0.48,0.16v4.18h-3.71V72.2c-0.46,0-0.48,0-0.48,0.16v9.96c0.46,0,0.48,0,0.48-0.16V77h3.71v5.32
		C137.13,82.32,137.14,82.32,137.14,82.16 M145.6,47.69c0.29-0.7,0.37-1.52,0.37-1.97c0-1.11-0.78-1.73-2.88-1.73
		c-2.01,0-3.99,0.74-5.59,1.85v19.13c3.33,0,3.37,0,3.37-0.66l0.04-16.17c0.78-0.66,1.81-0.95,2.71-0.95
		C144.33,47.2,144.99,47.36,145.6,47.69 M158.99,47.98c0.45-0.49,0.74-1.15,0.74-1.69c0-0.82-0.95-2.3-5.18-2.3
		c-4.61,0-6.71,1.97-6.71,4.85c0,1.36,0.49,2.84,2.35,4.36l3.99,3.42c1.24,1.11,1.65,2.1,1.65,3.21c0,1.65-1.23,2.55-3.33,2.55
		c-1.6,0-2.92-0.33-4.11-1.03c-0.45,0.74-0.58,1.44-0.58,1.93c0,1.44,2.1,2.1,5.02,2.1c4.2,0,6.79-2.06,6.79-5.72
		c0-2.06-0.66-3.41-2.43-5.14l-3.83-3.09c-1.4-1.15-1.65-1.81-1.65-2.55c0-1.28,1.32-1.97,3.25-1.97
		C156.52,46.91,157.75,47.24,158.99,47.98 M172.58,47.69c0.29-0.7,0.37-1.4,0.37-1.85c0-1.07-1.52-1.85-3.41-1.85
		c-3.41,0-7.41,1.28-7.41,11.15c0,8.68,2.22,10.24,6.13,10.24c2.71,0,4.61-0.99,4.61-2.1c0-0.53-0.12-1.07-0.33-1.81
		c-0.7,0.45-1.93,0.95-3.25,0.95c-2.51,0-3.66-1.48-3.66-7.28c0-7.32,2.14-8.19,4.07-8.19C170.81,46.95,171.92,47.32,172.58,47.69
		 M171.58,82.46c1,0,2.02-0.25,2.41-0.48V72.2c-0.45,0-0.49,0-0.49,0.15v9.29c-0.32,0.16-1.16,0.36-1.92,0.36
		c-1.95,0-2.15-1.39-2.15-2.9v-6.9c-0.48,0-0.48,0-0.48,0.16v6.74C168.95,80.87,169.18,82.46,171.58,82.46 M187.9,64.31V49.42
		c0-3.46-0.74-5.43-4.28-5.43c-1.56,0-3.33,0.49-4.61,1.6V34.73c-2.76,0-3.33,0-3.33,1.52v28.71c3.29,0,3.33,0,3.33-0.66V48.23
		c0.99-0.86,2.18-1.15,3.09-1.15c2.02,0,2.35,1.48,2.35,3.29v14.6C187.73,64.97,187.9,64.97,187.9,64.31 M189.74,72.05
		c-1.49,0-2.37,0.78-2.37,1.86c0,0.75,0.4,1.34,1.05,2.02l1.65,1.57c0.87,0.87,1.15,1.5,1.15,2.44c0,1.18-0.59,2.02-2,2.02
		c-0.95,0-1.42-0.26-1.72-0.55c-0.13,0.09-0.2,0.2-0.2,0.33c0,0.23,0.58,0.69,1.91,0.69c1.74,0,2.49-1.06,2.49-2.57
		c0-1-0.26-1.68-1.11-2.54l-1.84-1.78c-0.51-0.52-0.9-1.01-0.9-1.66c0-0.84,0.72-1.4,1.82-1.4c0.85,0,1.42,0.23,1.66,0.43
		c0.1-0.07,0.16-0.2,0.16-0.3C191.51,72.39,190.96,72.05,189.74,72.05 M197.54,65.38c2.22,0,4.57-0.62,6.13-1.48V44.4
		c-3.29,0-3.33,0-3.33,0.7v16.62c-0.86,0.58-2.01,0.74-2.75,0.74c-2.22,0-2.76-0.95-2.76-3.62V44.4c-3.46,0-3.46,0-3.46,0.7v13.45
		C191.37,63.16,192.65,65.38,197.54,65.38 M208.64,72.2h-3.45c-0.16,0-0.16,0.16-0.16,0.16v9.96h3.5c0.13,0,0.13-0.04,0.13-0.46
		h-3.15V77h2.7c0.13,0,0.13-0.07,0.13-0.45h-2.83v-3.89h3.04C208.64,72.66,208.64,72.59,208.64,72.2 M210.93,64.31V34.73
		c-2.67,0-3.33,0-3.33,1.52v28.71C210.93,64.97,210.93,64.97,210.93,64.31 M223.45,50.98c0,0.78-0.04,1.73-0.2,2.47
		c-1.44,0.41-3.99,0.49-5.56,0.45c0.25-5.55,1.73-6.99,3.41-6.99C222.87,46.91,223.41,48.02,223.45,50.98 M226.25,55.96
		c0.33-1.48,0.45-3.54,0.45-5.35c0-4.44-1.77-6.62-5.22-6.62c-3.62,0-7.28,1.48-7.28,11.77c0,8.02,2.76,9.63,6.58,9.63
		c3.09,0,5.68-0.99,5.68-2.26c0-0.66-0.08-1.65-0.29-2.26c-1.4,0.78-3.04,1.28-4.69,1.28c-2.51,0-3.66-1.15-3.83-5.51
		C219.62,56.62,223.41,56.5,226.25,55.96 M226.77,82.16V72.2c-0.48,0-0.48,0-0.48,0.16v8.83c-0.46-1.04-2.1-4.78-2.14-4.93
		l-1.82-4.06h-0.29c-0.12,0-0.16,0.04-0.16,0.16v9.96c0.48,0,0.48,0,0.48-0.16V78.6c0-0.09-0.01-4.08-0.03-5.3
		c0.55,1.24,2.08,4.78,2.14,4.89l1.85,4.13h0.29C226.7,82.32,226.77,82.27,226.77,82.16"/>
	<path class="st2" d="M92.8,44.77c-0.65,0.19-1.26,0.41-1.75,0.62v19.58c0.74,0,1.31,0,1.75-0.01V44.77z M81.03,65.38
		c2.22,0,4.57-0.62,6.13-1.48V44.4c-3.29,0-3.33,0-3.33,0.7v16.62c-0.86,0.57-2.02,0.74-2.76,0.74c-2.22,0-2.76-0.95-2.76-3.62V44.4
		c-3.45,0-3.45,0-3.45,0.7v13.45C74.86,63.16,76.14,65.38,81.03,65.38 M67.48,48.68c0,2.59-2.1,4.24-4.94,5.39v-5.1
		c1.07-1.32,2.3-1.97,3.41-1.97C66.99,46.99,67.48,47.61,67.48,48.68 M67.77,53.9c1.03-0.82,3.41-2.96,3.41-6.38
		c0-1.89-0.78-3.54-3.5-3.54c-1.77,0-3.78,0.74-5.14,1.89V34.73c-2.76,0-3.37,0-3.37,1.52v28.72c3.41,0,3.37,0,3.37-0.66v-7.86
		c0,0,1.07-0.62,1.81-0.78c1.56-0.33,3.08,0.95,3.58,4.24c0.12,0.74,0.21,1.52,0.21,2.43c0,0.82-0.08,1.69-0.17,2.63
		c3.7,0,3.7,0,3.78-0.66c0.08-0.74,0.12-1.44,0.12-2.1c0-0.49,0-0.95-0.04-1.36C71.51,57.07,69.75,54.77,67.77,53.9 M64.46,72.66
		h1.27c1.65,0,2.37,1.21,2.37,4.03c0,4.52-1.18,5.16-2.41,5.16h-1.23V72.66z M64.33,72.2c-0.29,0-0.35,0.1-0.35,0.23v9.89h1.7
		c1.52,0,2.91-0.78,2.91-5.61c0-3.21-0.97-4.51-2.8-4.51H64.33z M49.78,72.34v9.3C49.47,81.79,48.63,82,47.86,82
		c-1.95,0-2.15-1.39-2.15-2.91V72.2c-0.48,0-0.48,0-0.48,0.16v6.74c0,1.78,0.23,3.37,2.63,3.37c1,0,2.02-0.25,2.41-0.48V72.2
		C49.83,72.2,49.78,72.2,49.78,72.34 M48.87,70.41c0.27,0,0.46-0.2,0.46-0.49c0-0.26-0.17-0.48-0.46-0.48
		c-0.28,0-0.43,0.23-0.43,0.48C48.44,70.22,48.59,70.41,48.87,70.41 M46.85,70.41c0.27,0,0.48-0.2,0.48-0.49
		c0-0.26-0.19-0.48-0.48-0.48c-0.27,0-0.43,0.23-0.43,0.48C46.42,70.22,46.56,70.41,46.85,70.41 M47.1,53.9
		c0.25-5.55,1.73-6.99,3.41-6.99c1.77,0,2.3,1.11,2.34,4.07c0,0.78-0.04,1.73-0.2,2.47C51.22,53.86,48.67,53.95,47.1,53.9
		 M43.61,55.76c0,8.02,2.76,9.63,6.58,9.63c3.09,0,5.68-0.99,5.68-2.26c0-0.66-0.08-1.65-0.29-2.26c-1.4,0.78-3.04,1.28-4.69,1.28
		c-2.51,0-3.66-1.15-3.83-5.51c1.97,0,5.76-0.12,8.6-0.66c0.33-1.48,0.45-3.54,0.45-5.35c0-4.44-1.77-6.62-5.22-6.62
		C47.27,43.99,43.61,45.47,43.61,55.76 M34.09,45.64c-1.24-1.48-1.89-2.55-1.89-4.07c0-1.77,1.56-2.84,3.99-2.84
		c1.89,0,3.45,0.58,4.03,1.03c0.58-0.62,0.82-1.36,0.82-1.93c0-1.15-1.48-2.06-5.39-2.06c-4.61,0-7.08,2.47-7.08,5.92
		c0,1.93,0.7,3.62,2.55,5.92l4.16,4.81c1.81,2.1,2.39,3.46,2.39,5.35c0,2.51-1.11,4.19-4.03,4.19c-1.98,0-3.37-0.66-4.24-1.44
		c-0.58,0.74-0.86,1.73-0.86,2.39c0,1.15,1.65,2.47,5.39,2.47c5.6,0,7.36-3.58,7.36-7.73c0-2.55-0.62-4.4-2.76-6.95L34.09,45.64z
		 M28.5,72.43v9.89h3.53c0.1,0,0.16-0.01,0.16-0.16v-0.29h-3.18V72.2C28.5,72.2,28.5,72.2,28.5,72.43 M82,82.32
		c0.46,0,0.48,0,0.48-0.16V72.2c-0.46,0-0.48,0-0.48,0.28V82.32z"/>
	<path class="st3" d="M14.84,106.5c-0.14-0.05-0.28-0.1-0.42-0.15c-0.08-0.03-0.17-0.07-0.25-0.1c-0.12-0.05-0.25-0.1-0.37-0.15
		c-0.09-0.04-0.18-0.08-0.26-0.12c-0.12-0.05-0.23-0.11-0.35-0.16c-0.09-0.04-0.18-0.09-0.27-0.14c-0.11-0.06-0.22-0.11-0.33-0.17
		c-0.09-0.05-0.18-0.1-0.26-0.15c-0.11-0.06-0.21-0.12-0.32-0.18c-0.09-0.05-0.18-0.11-0.27-0.17c-0.1-0.07-0.21-0.13-0.31-0.2
		c-0.09-0.06-0.17-0.12-0.26-0.18c-0.1-0.07-0.2-0.14-0.3-0.21c-0.09-0.06-0.17-0.13-0.26-0.19c-0.1-0.07-0.2-0.15-0.29-0.23
		c-0.09-0.07-0.17-0.14-0.25-0.21c-0.1-0.08-0.19-0.16-0.28-0.24c-0.08-0.07-0.17-0.15-0.25-0.22c-0.09-0.08-0.18-0.17-0.27-0.25
		c-0.08-0.08-0.16-0.16-0.24-0.23c-0.09-0.09-0.18-0.17-0.26-0.26c-0.08-0.08-0.16-0.16-0.23-0.25c-0.09-0.09-0.17-0.18-0.25-0.27
		c-0.08-0.09-0.15-0.17-0.22-0.26c-0.08-0.1-0.16-0.19-0.24-0.29c-0.07-0.09-0.14-0.18-0.22-0.27c-0.08-0.1-0.16-0.2-0.23-0.3
		c-0.07-0.09-0.14-0.19-0.21-0.28c-0.07-0.1-0.15-0.21-0.22-0.31c-0.07-0.1-0.13-0.2-0.2-0.29c-0.07-0.11-0.14-0.22-0.21-0.33
		c-0.06-0.1-0.13-0.2-0.19-0.3c-0.07-0.11-0.14-0.22-0.2-0.34c-0.06-0.1-0.12-0.21-0.18-0.31c-0.07-0.12-0.13-0.23-0.19-0.35
		c-0.06-0.11-0.11-0.21-0.17-0.32c-0.06-0.12-0.12-0.24-0.18-0.36c-0.05-0.11-0.11-0.22-0.16-0.33c-0.06-0.12-0.11-0.25-0.17-0.37
		c-0.05-0.11-0.1-0.23-0.15-0.34c-0.05-0.13-0.1-0.25-0.15-0.38c-0.05-0.12-0.09-0.23-0.14-0.35c-0.05-0.13-0.1-0.26-0.14-0.39
		c-0.04-0.12-0.08-0.24-0.12-0.36c-0.04-0.13-0.09-0.27-0.13-0.4c-0.04-0.12-0.08-0.24-0.11-0.37c-0.04-0.14-0.08-0.28-0.12-0.42
		c-0.03-0.12-0.07-0.25-0.1-0.37c-0.04-0.14-0.07-0.29-0.1-0.43c-0.03-0.12-0.06-0.25-0.09-0.37c-0.03-0.14-0.06-0.29-0.09-0.44
		c-0.03-0.13-0.05-0.25-0.07-0.38c-0.03-0.15-0.05-0.3-0.07-0.45c-0.02-0.13-0.04-0.26-0.06-0.39c-0.02-0.15-0.04-0.3-0.06-0.46
		c-0.02-0.13-0.03-0.26-0.05-0.39c-0.02-0.15-0.03-0.31-0.04-0.47c-0.01-0.13-0.03-0.26-0.03-0.39c-0.01-0.16-0.02-0.32-0.03-0.49
		c-0.01-0.13-0.01-0.26-0.02-0.39C3.2,88.34,3.2,88.06,3.2,87.77V17.61c0-0.25,0-0.49,0.01-0.73c0-0.08,0.01-0.15,0.01-0.23
		c0.01-0.17,0.01-0.33,0.02-0.5c0.01-0.08,0.01-0.16,0.02-0.24c0.01-0.16,0.02-0.31,0.03-0.47c0.01-0.09,0.02-0.18,0.03-0.26
		c0.01-0.15,0.03-0.29,0.05-0.44c0.01-0.09,0.02-0.18,0.04-0.27c0.02-0.14,0.04-0.28,0.06-0.42c0.01-0.1,0.03-0.19,0.05-0.29
		c0.02-0.13,0.04-0.26,0.07-0.39c0.02-0.1,0.04-0.2,0.06-0.3c0.02-0.12,0.05-0.25,0.07-0.37c0.02-0.1,0.05-0.2,0.07-0.3
		c0.03-0.11,0.05-0.23,0.08-0.34c0.05-0.19,0.1-0.37,0.16-0.55c0.07-0.24,0.13-0.48,0.2-0.71c0.06-0.18,0.13-0.35,0.19-0.53
		c0.08-0.23,0.15-0.45,0.24-0.67c0.07-0.18,0.15-0.35,0.23-0.53c0.09-0.21,0.17-0.41,0.27-0.61C5.22,8.27,5.31,8.11,5.4,7.94
		c0.1-0.19,0.19-0.38,0.3-0.57c0.1-0.18,0.22-0.35,0.32-0.53c0.1-0.16,0.19-0.32,0.29-0.48c0.11-0.17,0.23-0.33,0.35-0.49
		c0.11-0.15,0.21-0.31,0.32-0.45c0.13-0.17,0.26-0.32,0.4-0.48C7.5,4.81,7.6,4.67,7.71,4.55c0.14-0.16,0.29-0.31,0.44-0.46
		C8.27,3.97,8.38,3.85,8.5,3.74C8.5,3.73,8.51,3.73,8.52,3.72c0.26-0.24,0.52-0.48,0.79-0.7C9.32,3.01,9.33,3,9.34,3
		c0.27-0.22,0.55-0.43,0.84-0.63c0.08-0.06,0.16-0.11,0.24-0.16c0.07-0.04,0.14-0.09,0.2-0.14c0.09-0.06,0.18-0.11,0.26-0.16
		c0.06-0.04,0.13-0.08,0.19-0.12c0.1-0.06,0.2-0.11,0.29-0.16c0.06-0.03,0.12-0.07,0.18-0.1c0.16-0.08,0.32-0.16,0.48-0.24
		L8.74,2.86C8.43,3.01,8.12,3.18,7.82,3.35c0,0-0.01,0-0.01,0.01c-0.3,0.17-0.59,0.36-0.88,0.56c-0.01,0-0.01,0-0.01,0.01
		c0,0,0,0-0.01,0c-0.28,0.2-0.56,0.4-0.83,0.62C6.07,4.55,6.06,4.56,6.05,4.57C5.79,4.78,5.52,5.01,5.27,5.25
		C5.26,5.26,5.26,5.27,5.25,5.27c0,0-0.01,0-0.01,0.01c-0.01,0-0.01,0.01-0.02,0.01C5.12,5.4,5.02,5.51,4.91,5.62
		c-0.15,0.15-0.3,0.29-0.44,0.45C4.36,6.19,4.25,6.33,4.14,6.46C4.02,6.61,3.89,6.75,3.76,6.91C3.76,6.91,3.76,6.92,3.75,6.93
		c-0.11,0.14-0.21,0.3-0.32,0.44C3.31,7.53,3.19,7.68,3.08,7.85C2.98,8,2.89,8.16,2.79,8.32c-0.1,0.16-0.21,0.32-0.3,0.49
		C2.48,8.82,2.48,8.83,2.47,8.83C2.47,8.84,2.46,8.85,2.46,8.86c-0.1,0.17-0.18,0.35-0.28,0.53C2.09,9.56,2,9.72,1.92,9.89
		c-0.09,0.19-0.18,0.4-0.26,0.6c-0.07,0.17-0.15,0.33-0.22,0.5c0,0.01-0.01,0.02-0.01,0.03c-0.09,0.21-0.16,0.44-0.24,0.65
		C1.13,11.84,1.06,12.01,1,12.19c-0.07,0.23-0.13,0.46-0.2,0.69c-0.05,0.17-0.1,0.34-0.15,0.52c0,0.01,0,0.02-0.01,0.02
		c0,0,0,0.01,0,0.01c-0.03,0.11-0.05,0.22-0.08,0.32c-0.02,0.1-0.05,0.19-0.07,0.29c-0.03,0.12-0.05,0.24-0.07,0.36
		c-0.02,0.1-0.04,0.19-0.06,0.29c-0.02,0.12-0.04,0.25-0.06,0.37c-0.02,0.1-0.03,0.19-0.05,0.29c-0.02,0.13-0.04,0.26-0.05,0.39
		c-0.01,0.09-0.03,0.18-0.04,0.27c0,0,0,0.01,0,0.01c-0.02,0.14-0.03,0.29-0.05,0.44c-0.01,0.08-0.02,0.17-0.03,0.25
		c-0.01,0.15-0.02,0.3-0.03,0.45c-0.01,0.08-0.01,0.16-0.02,0.24c-0.01,0.16-0.02,0.32-0.02,0.47c0,0.08-0.01,0.16-0.01,0.23
		C0,18.36,0,18.6,0,18.84v68.43c0,0.07,0,0.13,0,0.2c0,0.07,0,0.13,0,0.2s0,0.13,0,0.2c0,0.07,0,0.13,0.01,0.2c0,0.01,0,0.03,0,0.04
		c0.01,0.13,0.01,0.25,0.02,0.38c0.01,0.16,0.02,0.32,0.03,0.47c0.01,0.13,0.02,0.26,0.03,0.38c0.01,0.15,0.03,0.3,0.04,0.45
		c0.01,0.13,0.03,0.26,0.05,0.39c0.02,0.15,0.03,0.3,0.06,0.44C0.25,90.74,0.28,90.87,0.3,91c0.02,0.15,0.05,0.29,0.07,0.43
		c0.02,0.12,0.05,0.25,0.07,0.37c0.03,0.14,0.06,0.28,0.09,0.43c0.03,0.12,0.06,0.25,0.09,0.37c0.03,0.14,0.07,0.28,0.1,0.42
		c0.03,0.12,0.06,0.24,0.1,0.36c0.04,0.14,0.07,0.27,0.11,0.41c0.01,0.04,0.02,0.08,0.03,0.11c0.03,0.08,0.05,0.16,0.08,0.25
		c0.03,0.09,0.05,0.18,0.08,0.27c0.01,0.04,0.03,0.08,0.04,0.12c0.04,0.12,0.08,0.24,0.12,0.35c0.05,0.13,0.09,0.25,0.14,0.38
		c0.04,0.12,0.09,0.23,0.14,0.35c0.05,0.12,0.1,0.25,0.15,0.37c0.05,0.11,0.1,0.22,0.15,0.33c0.05,0.12,0.11,0.24,0.16,0.36
		c0.05,0.11,0.1,0.22,0.16,0.33c0.06,0.12,0.12,0.23,0.18,0.35c0.06,0.11,0.11,0.21,0.17,0.32c0.06,0.11,0.12,0.23,0.19,0.34
		c0.06,0.1,0.12,0.21,0.18,0.31c0.07,0.11,0.13,0.22,0.2,0.33c0.06,0.1,0.12,0.2,0.19,0.3c0.07,0.11,0.14,0.21,0.21,0.32
		c0.03,0.05,0.07,0.11,0.1,0.16c0.03,0.04,0.06,0.09,0.1,0.13c0.03,0.05,0.06,0.09,0.1,0.14c0.04,0.06,0.08,0.11,0.12,0.16
		c0.07,0.09,0.14,0.18,0.21,0.27c0.08,0.1,0.15,0.2,0.23,0.29c0.07,0.09,0.14,0.18,0.21,0.26c0.08,0.09,0.16,0.19,0.24,0.28
		c0.07,0.08,0.15,0.17,0.22,0.25c0.08,0.09,0.17,0.18,0.25,0.27c0.08,0.08,0.15,0.16,0.23,0.24c0.09,0.09,0.17,0.17,0.26,0.26
		c0.08,0.08,0.16,0.15,0.24,0.23c0.09,0.08,0.18,0.17,0.27,0.25c0.08,0.07,0.16,0.15,0.24,0.22c0.09,0.08,0.19,0.16,0.28,0.23
		c0.08,0.07,0.17,0.14,0.25,0.2c0.09,0.08,0.19,0.15,0.29,0.22c0.07,0.05,0.13,0.1,0.19,0.15c0.02,0.02,0.04,0.03,0.06,0.04
		c0.02,0.02,0.04,0.03,0.06,0.05c0.08,0.05,0.15,0.1,0.23,0.16c0.09,0.06,0.17,0.12,0.26,0.18c0.1,0.07,0.2,0.13,0.3,0.19
		c0.09,0.06,0.17,0.11,0.26,0.16c0.11,0.06,0.21,0.12,0.32,0.18c0.09,0.05,0.18,0.1,0.26,0.15c0.11,0.06,0.22,0.11,0.33,0.17
		c0.09,0.04,0.18,0.09,0.27,0.13c0.11,0.06,0.23,0.11,0.34,0.16c0.09,0.04,0.17,0.08,0.26,0.12c0.12,0.05,0.25,0.1,0.37,0.15
		c0.08,0.03,0.16,0.07,0.25,0.1c0.14,0.05,0.28,0.1,0.42,0.15c0.07,0.02,0.14,0.05,0.21,0.07c0.21,0.07,0.42,0.13,0.64,0.19
		l3.32,0.93c-0.22-0.06-0.43-0.12-0.64-0.19C14.98,106.55,14.91,106.52,14.84,106.5"/>
	<polygon class="st3" points="60.41,100.07 55.88,121.43 59.4,122.48 64.19,99.38 	"/>
</g>
</svg>
